<svg xmlns="http://www.w3.org/2000/svg" width="1200" height="500" viewBox="0 0 1200 500" role="img" aria-labelledby="title desc">
  <title id="title">ORGALORG/7 Software Atelier</title>
  <desc id="desc">A precision watch dial beside a restrained typographic identity.</desc>
  <rect width="1200" height="500" rx="10" fill="#f1eee6"/>
  <rect x="22" y="22" width="1156" height="456" rx="4" fill="none" stroke="#8b6d35" stroke-opacity=".5"/>
  <path d="M54 76h472M54 424h472M674 76h472M674 424h472" stroke="#8b6d35" stroke-opacity=".38"/>
  <g fill="#171a1b">
    <text x="72" y="112" font-family="Georgia, 'Times New Roman', serif" font-size="18" letter-spacing="5">INDEPENDENT MANUFACTURE</text>
    <text x="70" y="230" font-family="Georgia, 'Times New Roman', serif" font-size="78" letter-spacing="3">ORGALORG</text>
    <text x="72" y="278" font-family="Georgia, 'Times New Roman', serif" font-size="31" letter-spacing="13">SOFTWARE ATELIER</text>
    <text x="74" y="356" font-family="Verdana, sans-serif" font-size="13" letter-spacing="4" fill="#8b6d35">ENGINEERED IN CAIRO · REF. ORG—07</text>
  </g>
  <g transform="translate(900 250)">
    <circle r="157" fill="#e8e3d8" stroke="#8b6d35" stroke-width="2"/>
    <circle r="143" fill="none" stroke="#171a1b" stroke-opacity=".17"/>
    <circle r="125" fill="none" stroke="#8b6d35" stroke-opacity=".34"/>
    <g stroke="#171a1b" stroke-width="2">
      <path d="M0-137v14M0 137v-14M-137 0h14M137 0h-14"/>
      <path d="M-96.9-96.9l9.9 9.9M96.9 96.9L87 87M96.9-96.9L87-87M-96.9 96.9L-87 87"/>
    </g>
    <g stroke="#8b6d35" stroke-width="1" opacity=".8">
      <path d="M-70-121l7 12M70 121l-7-12M70-121l-7 12M-70 121l7-12M-121-70l12 7M121 70l-12-7M121-70l-12 7M-121 70l12-7"/>
    </g>
    <circle r="66" fill="none" stroke="#171a1b" stroke-opacity=".14"/>
    <path d="M0 9V-94" stroke="#171a1b" stroke-width="5" stroke-linecap="round"/>
    <path d="M-7 7L72 55" stroke="#8b6d35" stroke-width="4" stroke-linecap="round"/>
    <path d="M5-2L-48 69" stroke="#171a1b" stroke-width="1.5" stroke-linecap="round"/>
    <circle r="9" fill="#8b6d35"/>
    <circle r="3" fill="#f1eee6"/>
    <text y="-35" text-anchor="middle" fill="#171a1b" font-family="Georgia, 'Times New Roman', serif" font-size="12" letter-spacing="3">ORG—07</text>
    <text y="95" text-anchor="middle" fill="#8b6d35" font-family="Verdana, sans-serif" font-size="8" letter-spacing="3">THIRTEEN JEWELS</text>
  </g>
  <text x="72" y="452" fill="#171a1b" fill-opacity=".48" font-family="Verdana, sans-serif" font-size="9" letter-spacing="3">PRECISION SYSTEMS · OPEN-WEB MANUFACTURE</text>
</svg>
