<svg xmlns="http://www.w3.org/2000/svg" width="680" height="1100" viewBox="0 0 680 1100" role="img" aria-labelledby="svg-title svg-desc">
  <title id="svg-title">orgalorg7 terminal profile</title>
  <desc id="svg-desc">A mobile terminal-inspired profile for Mohammed Nehad.</desc>
  <style>
    text { font-family: ui-monospace, SFMono-Regular, Menlo, Monaco, Consolas, "Liberation Mono", "Courier New", monospace; }
    .primary { fill: #c9d1d9; }
    .secondary { fill: #8b949e; }
    .label { fill: #f0883e; font-weight: 600; }
    .value { fill: #58a6ff; }
    .accent { fill: #76e3ea; }
    .section { fill: #c9d1d9; font-weight: 700; letter-spacing: .7px; }
    .leader { stroke: #484f58; stroke-width: 2; stroke-linecap: round; stroke-dasharray: 1 7; }
    .rule { stroke: #30363d; stroke-width: 1; }
  </style>
  <rect width="680" height="1100" rx="18" fill="#0d1117"/>
  <rect x="16" y="16" width="648" height="1068" rx="16" fill="#10151d" stroke="#30363d"/>
  <path d="M32 16h616a16 16 0 0 1 16 16v34H16V32a16 16 0 0 1 16-16Z" fill="#161d27"/>
  <line x1="16" y1="66" x2="664" y2="66" class="rule"/>
  <circle cx="42" cy="41" r="6" fill="#f85149" opacity=".85"/>
  <circle cx="64" cy="41" r="6" fill="#f0883e" opacity=".85"/>
  <circle cx="86" cy="41" r="6" fill="#3fb950" opacity=".85"/>
  <text x="112" y="47" class="primary" font-size="17" font-weight="600">profile.sh</text>
  <text x="642" y="47" text-anchor="end" class="secondary" font-size="14">~/orgalorg7/profile</text>
  <text x="38" y="100" class="accent" font-size="15">$</text>
  <text x="60" y="100" class="secondary" font-size="15">./profile --verbose</text>
  <text x="150" y="126" class="primary" font-size="13" opacity=".82" xml:space="preserve">                    .</text>
    <text x="150" y="139.5" class="primary" font-size="13" opacity=".82" xml:space="preserve">             ..:-----=-:::.</text>
    <text x="150" y="153" class="primary" font-size="13" opacity=".82" xml:space="preserve">          .:---------:--=--:..</text>
    <text x="150" y="166.5" class="primary" font-size="13" opacity=".82" xml:space="preserve">        .:::--::::---::.....  .</text>
    <text x="150" y="180" class="primary" font-size="13" opacity=".82" xml:space="preserve">       .:..:---:..........::  ::</text>
    <text x="150" y="193.5" class="primary" font-size="13" opacity=".82" xml:space="preserve">      .  .:-:-:::::. . ..:..=-::.</text>
    <text x="150" y="207" class="primary" font-size="13" opacity=".82" xml:space="preserve">        :=-:::.......--=#%%#++:..</text>
    <text x="150" y="220.5" class="primary" font-size="13" opacity=".82" xml:space="preserve">       -..   .:::--++@@@@%%*..-..</text>
    <text x="150" y="234" class="primary" font-size="13" opacity=".82" xml:space="preserve">      ..  :-*##%@%#*%#***#+    -.</text>
    <text x="150" y="247.5" class="primary" font-size="13" opacity=".82" xml:space="preserve">        :=++=-:--:-:-::-===-:..:.</text>
    <text x="150" y="261" class="primary" font-size="13" opacity=".82" xml:space="preserve">       ----:-:::--*=-::::-==-:</text>
    <text x="150" y="274.5" class="primary" font-size="13" opacity=".82" xml:space="preserve">       :-=*===+*-+#==*+++*#+:</text>
    <text x="150" y="288" class="primary" font-size="13" opacity=".82" xml:space="preserve">        =+*****++@@%++=+++=:   ..</text>
    <text x="150" y="301.5" class="primary" font-size="13" opacity=".82" xml:space="preserve">         ..:-.  :-=-::.:..</text>
    <text x="150" y="315" class="primary" font-size="13" opacity=".82" xml:space="preserve">           ...:-:...:==-:</text>
    <text x="150" y="328.5" class="primary" font-size="13" opacity=".82" xml:space="preserve">         -..::::..-: .:=.</text>
    <text x="150" y="342" class="primary" font-size="13" opacity=".82" xml:space="preserve">         -+...        -+.:::-.</text>
    <text x="150" y="355.5" class="primary" font-size="13" opacity=".82" xml:space="preserve">          -+==++:  .-*#*-==-==</text>
    <text x="150" y="369" class="primary" font-size="13" opacity=".82" xml:space="preserve">          .:---==-::+=::::..:#* .</text>
    <text x="150" y="382.5" class="primary" font-size="13" opacity=".82" xml:space="preserve">    ...   .+----==+-:::::  :*%@= . ..</text>
    <text x="150" y="396" class="primary" font-size="13" opacity=".82" xml:space="preserve">  ::..... :@=  ...:..     *@@%@=.....:..</text>
    <text x="150" y="409.5" class="primary" font-size="13" opacity=".82" xml:space="preserve">  ........+#%=        .-+%@%%@#::...::..</text>
  <text x="38" y="444" class="accent" font-size="18" font-weight="700">orgalorg7</text>
  <text x="135.2" y="444" class="secondary" font-size="18">@github</text>
  <line x1="38" y1="460" x2="642" y2="460" stroke="#58a6ff" stroke-opacity=".65"/>
  <text x="38" y="480" class="section" font-size="14.5">System</text>
    <line x1="148" y1="475" x2="642" y2="475" class="rule"/>
  <text x="38" y="502" class="label" font-size="15">Role</text>
    <line x1="170" y1="497" x2="388.8" y2="497" class="leader"/>
    <text x="642" y="502" text-anchor="end" class="value" font-size="15">Independent software engineer</text>
    <text x="38" y="525" class="label" font-size="15">Base</text>
    <line x1="170" y1="520" x2="529.0" y2="520" class="leader"/>
    <text x="642" y="525" text-anchor="end" class="value" font-size="15">Cairo, Egypt</text>
    <text x="38" y="548" class="label" font-size="15">Practice</text>
    <line x1="170" y1="543" x2="471.3" y2="543" class="leader"/>
    <text x="642" y="548" text-anchor="end" class="value" font-size="15">Product engineering</text>
    <text x="38" y="571" class="label" font-size="15">Mode</text>
    <line x1="170" y1="566" x2="397.0" y2="566" class="leader"/>
    <text x="642" y="571" text-anchor="end" class="value" font-size="15">Architecture before ornament</text>
  <text x="38" y="618" class="section" font-size="14.5">Stack</text>
    <line x1="148" y1="613" x2="642" y2="613" class="rule"/>
  <text x="38" y="640" class="label" font-size="15">Languages</text>
    <line x1="170" y1="635" x2="430.0" y2="635" class="leader"/>
    <text x="642" y="640" text-anchor="end" class="value" font-size="15">Go · TypeScript · Python</text>
    <text x="38" y="663" class="label" font-size="15">Domains</text>
    <line x1="170" y1="658" x2="446.5" y2="658" class="leader"/>
    <text x="642" y="663" text-anchor="end" class="value" font-size="15">APIs · Maps · Realtime</text>
    <text x="38" y="686" class="label" font-size="15">Workflow</text>
    <line x1="170" y1="681" x2="529.0" y2="681" class="leader"/>
    <text x="642" y="686" text-anchor="end" class="value" font-size="15">Git · GitHub</text>
  <text x="38" y="733" class="section" font-size="14.5">Currently</text>
    <line x1="148" y1="728" x2="642" y2="728" class="rule"/>
  <text x="38" y="755" class="label" font-size="15">Building</text>
    <line x1="170" y1="750" x2="421.8" y2="750" class="leader"/>
    <text x="642" y="755" text-anchor="end" class="value" font-size="15">Geospatial data workflows</text>
    <text x="38" y="778" class="label" font-size="15">Refining</text>
    <line x1="170" y1="773" x2="331.0" y2="773" class="leader"/>
    <text x="642" y="778" text-anchor="end" class="value" font-size="15">Domain boundaries &amp; Go API contracts</text>
    <text x="38" y="801" class="label" font-size="15">Focus</text>
    <line x1="170" y1="796" x2="372.3" y2="796" class="leader"/>
    <text x="642" y="801" text-anchor="end" class="value" font-size="15">Maps, data &amp; product interfaces</text>
  <text x="38" y="848" class="section" font-size="14.5">Contact</text>
    <line x1="148" y1="843" x2="642" y2="843" class="rule"/>
  <text x="38" y="870" class="label" font-size="15">GitHub</text>
    <line x1="170" y1="865" x2="463.0" y2="865" class="leader"/>
    <text x="642" y="870" text-anchor="end" class="value" font-size="15">github.com/orgalorg7</text>
  <text x="38" y="940" class="section" font-size="14.5">GitHub</text>
    <line x1="148" y1="935" x2="642" y2="935" class="rule"/>
  <text x="38" y="962" class="label" font-size="15">Repositories</text>
    <line x1="170" y1="957" x2="619.8" y2="957" class="leader"/>
    <text x="642" y="962" text-anchor="end" class="value" font-size="15">7</text>
    <text x="38" y="985" class="label" font-size="15">Followers</text>
    <line x1="170" y1="980" x2="611.5" y2="980" class="leader"/>
    <text x="642" y="985" text-anchor="end" class="value" font-size="15">11</text>
    <text x="38" y="1008" class="label" font-size="15">Stars</text>
    <line x1="170" y1="1003" x2="619.8" y2="1003" class="leader"/>
    <text x="642" y="1008" text-anchor="end" class="value" font-size="15">0</text>
    <text x="38" y="1031" class="label" font-size="15">Public commits</text>
    <line x1="170" y1="1026" x2="603.3" y2="1026" class="leader"/>
    <text x="642" y="1031" text-anchor="end" class="value" font-size="15">180</text>
  <text x="38" y="1070" class="accent" font-size="15">$</text>
  <rect x="60" y="1057" width="9" height="15" rx="1" fill="#8b949e"/>
</svg>
